<svg xmlns="http://www.w3.org/2000/svg" version="1.1" xmlns:xlink="http://www.w3.org/1999/xlink" viewBox="0 0 200 200"><rect width="200" height="200" fill="url('#gradient')"></rect><defs><linearGradient id="gradient" gradientTransform="rotate(360 0.5 0.5)"><stop offset="0%" stop-color="#000000"></stop><stop offset="100%" stop-color="#000000"></stop></linearGradient></defs><g><g fill="#ffffff" transform="matrix(4.405308924485126,0,0,4.405308924485126,4.274120873556541,126.60810158893227)" stroke="#ffffff" stroke-width="0"><path d="M6.10 1.79L5.49 3.52Q1.97 2.53 1.97-1.03L1.97-1.03L1.97-2.96Q1.97-4.93 0.39-4.93L0.39-4.93L0.39-7.15Q1.97-7.15 1.97-9.13L1.97-9.13L1.97-11.18Q2.00-12.94 2.89-14.02Q3.77-15.11 5.49-15.60L5.49-15.60L6.10-13.88Q4.87-13.41 4.82-11.25L4.82-11.25L4.82-9.13Q4.82-6.94 3.02-6.04L3.02-6.04Q4.82-5.15 4.82-2.95L4.82-2.95L4.82-0.84Q4.87 1.32 6.10 1.79L6.10 1.79ZM7.57-14.22L12.07-14.22L15.24-4.33L18.41-14.22L22.92-14.22L22.92 0L19.48 0L19.48-3.32L19.81-10.12L16.38 0L14.11 0L10.66-10.13L11.00-3.32L11.00 0L7.57 0L7.57-14.22ZM29.78 0L25.10 0L25.10-14.22L29.68-14.22Q31.56-14.22 33.07-13.36Q34.57-12.51 35.42-10.95Q36.26-9.39 36.27-7.46L36.27-7.46L36.27-6.81Q36.27-4.85 35.44-3.31Q34.62-1.76 33.12-0.88Q31.62-0.01 29.78 0L29.78 0ZM29.68-11.57L28.53-11.57L28.53-2.64L29.72-2.64Q31.19-2.64 31.98-3.69Q32.77-4.74 32.77-6.81L32.77-6.81L32.77-7.42Q32.77-9.48 31.98-10.53Q31.19-11.57 29.68-11.57L29.68-11.57ZM37.97 3.52L37.35 1.79Q38.58 1.32 38.63-0.84L38.63-0.84L38.63-2.96Q38.63-5.16 40.45-6.04L40.45-6.04Q38.63-6.93 38.63-9.13L38.63-9.13L38.63-11.25Q38.58-13.41 37.35-13.88L37.35-13.88L37.97-15.60Q39.72-15.11 40.60-14.00Q41.47-12.89 41.48-11.09L41.48-11.09L41.48-9.13Q41.48-7.15 43.07-7.15L43.07-7.15L43.07-4.93Q41.48-4.93 41.48-2.97L41.48-2.97L41.48-0.89Q41.42 2.55 37.97 3.52L37.97 3.52Z"></path></g></g></svg>